<svg width="16" height="16" viewBox="0 0 16 16" fill="none" xmlns="http://www.w3.org/2000/svg">
<g clip-path="url(#clip0_8_104)">
<path d="M14.6666 4.50001C14.9427 4.50001 15.1666 4.27615 15.1666 4.00001C15.1666 3.72387 14.9427 3.50001 14.6666 3.50001V4.50001ZM9.33325 3.50001C9.05712 3.50001 8.83325 3.72387 8.83325 4.00001C8.83325 4.27615 9.05712 4.50001 9.33325 4.50001V3.50001ZM12.4999 1.33334C12.4999 1.0572 12.2761 0.833344 11.9999 0.833344C11.7238 0.833344 11.4999 1.0572 11.4999 1.33334H12.4999ZM11.4999 6.66668C11.4999 6.94281 11.7238 7.16668 11.9999 7.16668C12.2761 7.16668 12.4999 6.94281 12.4999 6.66668H11.4999ZM14.6666 3.50001H11.9999V4.50001H14.6666V3.50001ZM11.9999 3.50001H9.33325V4.50001H11.9999V3.50001ZM11.4999 1.33334V4.00001H12.4999V1.33334H11.4999ZM11.4999 4.00001V6.66668H12.4999V4.00001H11.4999Z" fill="white"/>
<path d="M7.66659 2C4.68103 2 3.18825 2 2.26075 2.92749C1.33325 3.85499 1.33325 5.34777 1.33325 8.33333C1.33325 11.3189 1.33325 12.8117 2.26075 13.7392C3.18825 14.6667 4.68103 14.6667 7.66659 14.6667C10.6521 14.6667 12.1449 14.6667 13.0725 13.7392C13.9999 12.8117 13.9999 11.3189 13.9999 8.33333V8" stroke="white" stroke-linecap="round"/>
<path d="M1.33325 9.4236C1.74593 9.36366 2.16315 9.33406 2.58106 9.33513C4.34902 9.29773 6.07368 9.8486 7.44732 10.8895C8.72125 11.8547 9.61638 13.1833 9.99992 14.6667" stroke="white" stroke-linejoin="round"/>
<path d="M14 11.2641C13.2164 10.8673 12.4059 10.6659 11.5908 10.6667C10.3563 10.6619 9.13433 11.1155 8 12" stroke="white" stroke-linejoin="round"/>
</g>
<defs>
<clipPath id="clip0_8_104">
<rect width="16" height="16" fill="white"/>
</clipPath>
</defs>
</svg>
