<svg width="16" height="16" viewBox="0 0 16 16" fill="none" xmlns="http://www.w3.org/2000/svg">
<path d="M9.90639 14.6667H7.03192C4.83786 14.6667 3.74085 14.6667 2.97901 14.1348C2.76074 13.9824 2.56695 13.8017 2.40355 13.5981C1.83325 12.8875 1.83325 11.8644 1.83325 9.81821V8.12121C1.83325 6.14578 1.83325 5.15805 2.14874 4.36918C2.65591 3.10096 3.72852 2.1006 5.08833 1.62758C5.93417 1.33334 6.99319 1.33334 9.11132 1.33334C10.3217 1.33334 10.9269 1.33334 11.4102 1.50148C12.1872 1.77178 12.8001 2.34341 13.0899 3.0681C13.2703 3.51889 13.2703 4.0833 13.2703 5.21213V6.66668" stroke="white" stroke-linecap="round" stroke-linejoin="round"/>
<path d="M1.83325 8.00001C1.83325 6.77274 2.83727 5.77779 4.07579 5.77779C4.52371 5.77779 5.05178 5.85556 5.48728 5.73993C5.87422 5.63718 6.17645 5.33769 6.28014 4.95425C6.39683 4.5227 6.31834 3.99942 6.31834 3.55556C6.31834 2.32826 7.32239 1.33334 8.56085 1.33334" stroke="white" stroke-linecap="round" stroke-linejoin="round"/>
<path d="M8.56125 12H10.2431M6.94392 9.23372C6.85999 8.69966 6.75632 8.69912 5.87018 8.66666H5.19742C4.82586 8.66666 4.52466 8.96512 4.52466 9.33332V11.3333C4.52466 11.7015 4.82586 12 5.19742 12H6.4084C6.66852 12 6.94392 11.7911 6.94392 11.5333V10.8C6.94392 10.7263 6.86885 10.5973 6.79452 10.5973H6.04509M8.56125 8.66666H9.40219M9.40219 8.66666H10.2431M9.40219 8.66666V11.9166M14.1673 8.66666H12.4855C12.1139 8.66666 11.8127 8.96512 11.8127 9.33332V10.3333M11.8127 10.3333V12M11.8127 10.3333H13.4946" stroke="white" stroke-linecap="round" stroke-linejoin="round"/>
</svg>
