<svg width="16" height="16" viewBox="0 0 16 16" fill="none" xmlns="http://www.w3.org/2000/svg">
<path d="M1.33325 7.33332C1.33325 5.13344 1.33325 4.03349 2.01667 3.35008C2.70009 2.66666 3.80003 2.66666 5.99992 2.66666H6.66659C8.86645 2.66666 9.96639 2.66666 10.6499 3.35008C11.3333 4.03349 11.3333 5.13344 11.3333 7.33332V8.66666C11.3333 10.8665 11.3333 11.9665 10.6499 12.6499C9.96639 13.3333 8.86645 13.3333 6.66659 13.3333H5.99992C3.80003 13.3333 2.70009 13.3333 2.01667 12.6499C1.33325 11.9665 1.33325 10.8665 1.33325 8.66666V7.33332Z" stroke="white"/>
<path d="M11.3333 5.93725L11.4172 5.86798C12.8277 4.70417 13.533 4.12225 14.0998 4.40322C14.6666 4.6842 14.6666 5.61571 14.6666 7.47874V8.52128C14.6666 10.3843 14.6666 11.3158 14.0998 11.5968C13.533 11.8777 12.8277 11.2959 11.4172 10.132L11.3333 10.0627" stroke="white" stroke-linecap="round"/>
<path d="M7.66675 7.33334C8.21903 7.33334 8.66675 6.88563 8.66675 6.33334C8.66675 5.78106 8.21903 5.33334 7.66675 5.33334C7.11446 5.33334 6.66675 5.78106 6.66675 6.33334C6.66675 6.88563 7.11446 7.33334 7.66675 7.33334Z" stroke="white"/>
</svg>
